<svg xmlns="http://www.w3.org/2000/svg" viewBox="0.5 0.2 11.1 11.6">
	<path d="M9.9,6l1.6-1.8L9.2,3.7l.2-2.4-2.2,1L6,.2,4.8,2.3l-2.2-1,.2,2.4L.5,4.2,2.1,6,.5,7.8l2.4.5-.2,2.4,2.2-1L6,11.8,7.2,9.7l2.2,1L9.2,8.3l2.4-.5Zm.5,1.2L9.3,6.8l-.7-1,.9.3ZM6.9,9.4l-.7,1.1V9.3l.7-1ZM5.3,3.5,4.2,3.1l-.7-.9,1.2.5Zm2-.8,1.2-.5-.7.9-1.1.4ZM8.7,3.8l-.6.8V3.4l.7-.9ZM6,8.9,5.1,7.6,6,6.4l.9,1.2ZM4.3,5.2V3.6l1.5.5V5.6ZM6.2,4.1l1.5-.5V5.2l-1.5.5ZM3.3,3.8,3.2,2.5l.7.9V4.6ZM5.6,6.1,4.7,7.3,3.2,6.9l1-1.2ZM5.1,8.3l.7,1v1.2L5.1,9.4ZM6.4,6.1l1.4-.5,1,1.2-1.5.5Zm4.3-1.6L9.6,5.7,8.2,5.2,9,4.1Zm-3.9-2L6,3.6,5.2,2.5,6,1.1Zm-5.5,2L3,4.1l.8,1.1-1.4.5ZM2.5,6.2l.9-.3-.7.9-1.1.4ZM1.7,7.6l1.1-.4L4,7.6,3,7.9Zm1.6.7,1.3-.4V9.3L3.1,10Zm4.1,1V7.9l1.3.4L8.9,10ZM8.9,7.9l-1-.3,1.2-.4,1.1.4Z" stroke="#dddddd" stroke-width="0.1" fill="red"/>
</svg>
